<svg width="4762" height="1044" viewBox="0 0 4762 1044" fill="none" xmlns="http://www.w3.org/2000/svg">
<g filter="url(#filter0_d_15_134)">
<path d="M798.511 66.3C873.411 66.3 939.211 82.4 995.911 114.6C1052.61 146.1 1096.71 190.55 1128.21 247.95C1160.41 305.35 1176.51 372.2 1176.51 448.5C1176.51 524.8 1160.41 591.65 1128.21 649.05C1096.71 706.45 1052.61 751.25 995.911 783.45C939.211 814.95 873.411 830.7 798.511 830.7C724.311 830.7 658.861 814.95 602.161 783.45C545.461 751.25 501.011 706.45 468.811 649.05C437.311 591.65 421.561 524.8 421.561 448.5C421.561 372.2 437.311 305.35 468.811 247.95C501.011 190.55 545.461 146.1 602.161 114.6C658.861 82.4 724.311 66.3 798.511 66.3ZM798.511 799.2C858.011 799.2 909.811 784.5 953.911 755.1C998.711 725.7 1033.36 684.75 1057.86 632.25C1083.06 579.75 1095.66 518.5 1095.66 448.5C1095.66 378.5 1083.06 317.25 1057.86 264.75C1033.36 212.25 998.711 171.3 953.911 141.9C909.811 112.5 858.011 97.8 798.511 97.8C739.711 97.8 687.911 112.5 643.111 141.9C599.011 171.3 564.361 212.25 539.161 264.75C514.661 317.25 502.411 378.5 502.411 448.5C502.411 518.5 514.661 579.75 539.161 632.25C564.361 684.75 599.011 725.7 643.111 755.1C687.911 784.5 739.711 799.2 798.511 799.2ZM4179.15 66.3C4190.35 66.3 4202.25 67 4214.85 68.4C4228.15 69.8 4240.75 71.9 4252.65 74.7C4265.25 76.8 4276.45 79.25 4286.25 82.0499C4296.75 84.15 4304.8 86.6 4310.4 89.4V205.95H4300.95C4300.95 172.35 4289.4 146.1 4266.3 127.2C4243.2 107.6 4215.2 97.8 4182.3 97.8C4143.8 97.8 4112.65 110.05 4088.85 134.55C4065.05 158.35 4053.15 186.35 4053.15 218.55C4053.15 231.85 4055.95 247.6 4061.55 265.8C4067.85 283.3 4079.05 299.75 4095.15 315.15L4302 506.25C4323 525.85 4337 546.85 4344 569.25C4351 591.65 4354.5 613.35 4354.5 634.35C4354.5 692.45 4336.65 739.7 4300.95 776.1C4265.95 812.5 4218.35 830.7 4158.15 830.7C4141.35 830.7 4121.4 828.95 4098.3 825.45C4075.9 821.95 4053.85 816 4032.15 807.6C4011.15 798.5 3993.65 786.95 3979.65 772.95C3977.55 761.75 3976.5 747.75 3976.5 730.95C3976.5 714.15 3977.9 696.65 3980.7 678.45C3983.5 659.55 3987.35 642.4 3992.25 627H4001.7C3998.2 662.7 4002.75 693.85 4015.35 720.45C4027.95 747.05 4046.15 767.35 4069.95 781.35C4094.45 794.65 4122.1 800.6 4152.9 799.2C4191.4 797.1 4224.3 783.8 4251.6 759.3C4279.6 734.1 4293.6 700.5 4293.6 658.5C4293.6 638.2 4290.1 620 4283.1 603.9C4276.1 587.1 4265.95 572.75 4252.65 560.85L4051.05 373.95C4030.05 354.35 4015.35 333 4006.95 309.9C3998.55 286.1 3994.35 264.05 3994.35 243.75C3994.35 214.35 4001.35 186 4015.35 158.7C4029.35 131.4 4050 109.35 4077.3 92.55C4105.3 75.05 4139.25 66.3 4179.15 66.3ZM4310.4 76.7999V98.85H4230.6V76.7999H4310.4Z" fill="white"/>
</g>
<path d="M1758.39 941C1758.39 936.2 1757.34 932.7 1755.24 930.5C1753.24 928.2 1750.04 927.05 1745.64 927.05C1745.34 927.05 1745.19 926.75 1745.19 926.15C1745.19 925.55 1745.34 925.25 1745.64 925.25L1751.94 925.4C1755.34 925.6 1758.09 925.7 1760.19 925.7C1761.99 925.7 1764.39 925.6 1767.39 925.4L1773.54 925.25C1773.74 925.25 1773.84 925.55 1773.84 926.15C1773.84 926.75 1773.74 927.05 1773.54 927.05C1769.44 927.05 1766.44 928.2 1764.54 930.5C1762.64 932.7 1761.69 936.2 1761.69 941V983.9C1761.69 995.6 1758.54 1004.7 1752.24 1011.2C1745.94 1017.7 1737.44 1020.95 1726.74 1020.95C1719.34 1020.95 1712.89 1019.5 1707.39 1016.6C1701.89 1013.6 1697.64 1009.4 1694.64 1004C1691.64 998.6 1690.14 992.35 1690.14 985.25V937.4C1690.14 934.4 1689.79 932.2 1689.09 930.8C1688.49 929.4 1687.24 928.45 1685.34 927.95C1683.54 927.35 1680.69 927.05 1676.79 927.05C1676.59 927.05 1676.49 926.75 1676.49 926.15C1676.49 925.55 1676.59 925.25 1676.79 925.25L1683.99 925.4C1688.19 925.6 1691.54 925.7 1694.04 925.7C1696.74 925.7 1700.19 925.6 1704.39 925.4L1711.29 925.25C1711.59 925.25 1711.74 925.55 1711.74 926.15C1711.74 926.75 1711.59 927.05 1711.29 927.05C1707.39 927.05 1704.54 927.35 1702.74 927.95C1700.94 928.55 1699.69 929.6 1698.99 931.1C1698.39 932.5 1698.09 934.7 1698.09 937.7V980C1698.09 991.7 1700.84 1000.75 1706.34 1007.15C1711.84 1013.45 1719.54 1016.6 1729.44 1016.6C1738.54 1016.6 1745.64 1013.75 1750.74 1008.05C1755.84 1002.25 1758.39 994.25 1758.39 984.05V941ZM1951.78 925.25C1952.08 925.25 1952.23 925.55 1952.23 926.15C1952.23 926.75 1952.08 927.05 1951.78 927.05C1947.48 927.05 1944.43 928.1 1942.63 930.2C1940.93 932.3 1940.08 935.9 1940.08 941V1020.65C1940.08 1020.85 1939.83 1021 1939.33 1021.1C1938.83 1021.2 1938.48 1021.15 1938.28 1020.95L1870.48 937.55L1867.93 934.7V1003.4C1867.93 1008.5 1868.78 1012.1 1870.48 1014.2C1872.18 1016.2 1875.13 1017.2 1879.33 1017.2C1879.63 1017.2 1879.78 1017.5 1879.78 1018.1C1879.78 1018.7 1879.63 1019 1879.33 1019C1876.93 1019 1875.08 1018.95 1873.78 1018.85L1866.58 1018.7L1859.23 1018.85C1857.93 1018.95 1855.98 1019 1853.38 1019C1853.18 1019 1853.08 1018.7 1853.08 1018.1C1853.08 1017.5 1853.18 1017.2 1853.38 1017.2C1857.68 1017.2 1860.63 1016.2 1862.23 1014.2C1863.83 1012.2 1864.63 1008.6 1864.63 1003.4V931.55C1861.13 928.55 1857.53 927.05 1853.83 927.05C1853.53 927.05 1853.38 926.75 1853.38 926.15C1853.38 925.55 1853.53 925.25 1853.83 925.25L1859.23 925.4C1860.33 925.5 1861.88 925.55 1863.88 925.55C1865.58 925.55 1866.98 925.5 1868.08 925.4C1869.18 925.3 1870.03 925.25 1870.63 925.25C1871.33 925.25 1871.88 925.45 1872.28 925.85C1872.78 926.15 1873.33 926.85 1873.93 927.95C1875.03 929.75 1876.23 931.45 1877.53 933.05L1936.78 1006.7V941C1936.78 935.9 1935.98 932.3 1934.38 930.2C1932.78 928.1 1929.88 927.05 1925.68 927.05C1925.48 927.05 1925.38 926.75 1925.38 926.15C1925.38 925.55 1925.48 925.25 1925.68 925.25L1931.38 925.4C1934.38 925.6 1936.78 925.7 1938.58 925.7C1940.28 925.7 1942.73 925.6 1945.93 925.4L1951.78 925.25ZM2069.92 1019.6C2067.02 1019.6 2063.77 1019.45 2060.17 1019.15C2058.77 1019.05 2057.02 1018.95 2054.92 1018.85C2052.92 1018.75 2050.67 1018.7 2048.17 1018.7L2038.27 1018.85C2036.47 1018.95 2033.97 1019 2030.77 1019C2030.57 1019 2030.47 1018.7 2030.47 1018.1C2030.47 1017.5 2030.57 1017.2 2030.77 1017.2C2034.67 1017.2 2037.52 1016.95 2039.32 1016.45C2041.22 1015.95 2042.52 1015 2043.22 1013.6C2043.92 1012.1 2044.27 1009.85 2044.27 1006.85V937.4C2044.27 934.4 2043.92 932.2 2043.22 930.8C2042.62 929.4 2041.37 928.45 2039.47 927.95C2037.67 927.35 2034.82 927.05 2030.92 927.05C2030.72 927.05 2030.62 926.75 2030.62 926.15C2030.62 925.55 2030.72 925.25 2030.92 925.25L2038.27 925.4C2042.47 925.6 2045.77 925.7 2048.17 925.7C2051.67 925.7 2055.22 925.55 2058.82 925.25C2063.22 925.05 2066.22 924.95 2067.82 924.95C2078.32 924.95 2087.62 926.95 2095.72 930.95C2103.82 934.95 2110.07 940.4 2114.47 947.3C2118.97 954.2 2121.22 961.95 2121.22 970.55C2121.22 980.25 2118.87 988.85 2114.17 996.35C2109.57 1003.75 2103.37 1009.5 2095.57 1013.6C2087.77 1017.6 2079.22 1019.6 2069.92 1019.6ZM2068.42 1017.65C2076.82 1017.65 2084.27 1015.95 2090.77 1012.55C2097.27 1009.15 2102.32 1004.15 2105.92 997.55C2109.62 990.95 2111.47 983.05 2111.47 973.85C2111.47 965.05 2109.72 957.1 2106.22 950C2102.82 942.9 2097.87 937.3 2091.37 933.2C2084.97 929 2077.57 926.9 2069.17 926.9C2064.77 926.9 2061.37 927.15 2058.97 927.65C2056.67 928.15 2054.97 929.2 2053.87 930.8C2052.77 932.3 2052.22 934.6 2052.22 937.7V1005.2C2052.22 1008.2 2052.67 1010.6 2053.57 1012.4C2054.47 1014.2 2056.07 1015.55 2058.37 1016.45C2060.67 1017.25 2064.02 1017.65 2068.42 1017.65ZM2268.89 997.1C2268.89 996.8 2269.19 996.7 2269.79 996.8C2270.39 996.8 2270.69 996.95 2270.69 997.25C2269.79 1003.55 2269.34 1010.05 2269.34 1016.75C2269.34 1017.55 2269.14 1018.15 2268.74 1018.55C2268.44 1018.85 2267.84 1019 2266.94 1019H2204.99C2204.79 1019 2204.69 1018.7 2204.69 1018.1C2204.69 1017.5 2204.79 1017.2 2204.99 1017.2C2208.89 1017.2 2211.74 1016.95 2213.54 1016.45C2215.44 1015.95 2216.69 1015 2217.29 1013.6C2217.99 1012.1 2218.34 1009.85 2218.34 1006.85V937.4C2218.34 934.4 2217.99 932.2 2217.29 930.8C2216.69 929.4 2215.44 928.45 2213.54 927.95C2211.74 927.35 2208.89 927.05 2204.99 927.05C2204.79 927.05 2204.69 926.75 2204.69 926.15C2204.69 925.55 2204.79 925.25 2204.99 925.25H2264.39C2265.29 925.25 2265.74 925.7 2265.74 926.6L2266.04 944.75C2266.04 945.05 2265.74 945.2 2265.14 945.2C2264.64 945.2 2264.39 945.05 2264.39 944.75C2264.39 939.65 2263.04 935.6 2260.34 932.6C2257.64 929.6 2254.09 928.1 2249.69 928.1H2239.34C2235.54 928.1 2232.74 928.35 2230.94 928.85C2229.14 929.35 2227.89 930.3 2227.19 931.7C2226.59 933.1 2226.29 935.3 2226.29 938.3V968.75H2246.09C2250.69 968.75 2253.89 968 2255.69 966.5C2257.49 964.9 2258.39 962.2 2258.39 958.4C2258.39 958.2 2258.69 958.1 2259.29 958.1C2259.89 958.1 2260.19 958.2 2260.19 958.4L2260.04 970.25C2260.04 973.15 2260.09 975.3 2260.19 976.7L2260.34 983.75C2260.34 983.95 2260.04 984.05 2259.44 984.05C2258.84 984.05 2258.54 983.95 2258.54 983.75C2258.54 979.25 2257.59 976.1 2255.69 974.3C2253.79 972.5 2250.44 971.6 2245.64 971.6H2226.29V1006.25C2226.29 1009.15 2226.59 1011.3 2227.19 1012.7C2227.89 1014 2229.09 1014.9 2230.79 1015.4C2232.59 1015.9 2235.44 1016.15 2239.34 1016.15H2253.14C2257.14 1016.15 2260.54 1014.4 2263.34 1010.9C2266.24 1007.4 2268.09 1002.8 2268.89 997.1ZM2449.52 1017.2C2449.82 1017.2 2449.97 1017.5 2449.97 1018.1C2449.97 1018.7 2449.82 1019 2449.52 1019H2432.12C2429.52 1019 2424.67 1014.7 2417.57 1006.1C2410.47 997.4 2401.87 985.4 2391.77 970.1C2388.77 970.9 2385.72 971.3 2382.62 971.3C2380.92 971.3 2378.77 971.2 2376.17 971V1006.85C2376.17 1009.95 2376.47 1012.2 2377.07 1013.6C2377.77 1015 2379.02 1015.95 2380.82 1016.45C2382.62 1016.95 2385.52 1017.2 2389.52 1017.2C2389.82 1017.2 2389.97 1017.5 2389.97 1018.1C2389.97 1018.7 2389.82 1019 2389.52 1019C2386.52 1019 2384.12 1018.95 2382.32 1018.85L2372.12 1018.7L2362.22 1018.85C2360.42 1018.95 2357.92 1019 2354.72 1019C2354.52 1019 2354.42 1018.7 2354.42 1018.1C2354.42 1017.5 2354.52 1017.2 2354.72 1017.2C2358.72 1017.2 2361.62 1016.95 2363.42 1016.45C2365.32 1015.95 2366.62 1015 2367.32 1013.6C2368.02 1012.1 2368.37 1009.85 2368.37 1006.85V937.4C2368.37 934.4 2368.02 932.2 2367.32 930.8C2366.72 929.4 2365.47 928.45 2363.57 927.95C2361.77 927.35 2358.92 927.05 2355.02 927.05C2354.72 927.05 2354.57 926.75 2354.57 926.15C2354.57 925.55 2354.72 925.25 2355.02 925.25L2362.22 925.4C2366.22 925.6 2369.52 925.7 2372.12 925.7C2373.92 925.7 2375.62 925.65 2377.22 925.55C2378.82 925.45 2380.22 925.35 2381.42 925.25C2384.52 924.95 2387.27 924.8 2389.67 924.8C2397.57 924.8 2403.62 926.45 2407.82 929.75C2412.02 933.05 2414.12 937.65 2414.12 943.55C2414.12 948.35 2412.72 952.9 2409.92 957.2C2407.12 961.4 2403.42 964.75 2398.82 967.25C2407.52 980.05 2414.77 990 2420.57 997.1C2426.37 1004.2 2431.52 1009.35 2436.02 1012.55C2440.62 1015.65 2445.12 1017.2 2449.52 1017.2ZM2376.17 967.4C2379.97 967.8 2382.97 968 2385.17 968C2392.47 968 2397.72 966.5 2400.92 963.5C2404.12 960.4 2405.72 955.45 2405.72 948.65C2405.72 941.05 2403.92 935.5 2400.32 932C2396.82 928.5 2392.12 926.75 2386.22 926.75C2383.42 926.75 2381.37 926.95 2380.07 927.35C2378.77 927.75 2377.77 928.7 2377.07 930.2C2376.47 931.7 2376.17 934.2 2376.17 937.7V967.4ZM2544.62 1006.25C2544.62 1009.15 2544.92 1011.3 2545.52 1012.7C2546.22 1014 2547.42 1014.9 2549.12 1015.4C2550.92 1015.9 2553.72 1016.15 2557.52 1016.15H2576.72C2586.62 1016.15 2592.47 1009.8 2594.27 997.1C2594.27 996.8 2594.52 996.7 2595.02 996.8C2595.62 996.8 2595.92 996.95 2595.92 997.25C2595.02 1005.15 2594.57 1011.65 2594.57 1016.75C2594.57 1017.55 2594.42 1018.15 2594.12 1018.55C2593.82 1018.85 2593.22 1019 2592.32 1019H2523.32C2523.12 1019 2523.02 1018.7 2523.02 1018.1C2523.02 1017.5 2523.12 1017.2 2523.32 1017.2C2527.22 1017.2 2530.07 1016.95 2531.87 1016.45C2533.77 1015.95 2535.02 1015 2535.62 1013.6C2536.32 1012.1 2536.67 1009.85 2536.67 1006.85V937.4C2536.67 934.4 2536.32 932.2 2535.62 930.8C2535.02 929.4 2533.77 928.45 2531.87 927.95C2530.07 927.35 2527.22 927.05 2523.32 927.05C2523.12 927.05 2523.02 926.75 2523.02 926.15C2523.02 925.55 2523.12 925.25 2523.32 925.25L2530.67 925.4C2534.87 925.6 2538.17 925.7 2540.57 925.7C2543.27 925.7 2546.72 925.6 2550.92 925.4L2557.97 925.25C2558.17 925.25 2558.27 925.55 2558.27 926.15C2558.27 926.75 2558.17 927.05 2557.97 927.05C2554.07 927.05 2551.17 927.35 2549.27 927.95C2547.47 928.45 2546.22 929.45 2545.52 930.95C2544.92 932.35 2544.62 934.55 2544.62 937.55V1006.25ZM2771.31 1017.2C2771.71 1017.2 2771.91 1017.5 2771.91 1018.1C2771.91 1018.7 2771.71 1019 2771.31 1019C2769.51 1019 2766.61 1018.9 2762.61 1018.7C2758.81 1018.5 2756.01 1018.4 2754.21 1018.4C2752.11 1018.4 2749.36 1018.5 2745.96 1018.7C2742.76 1018.9 2740.36 1019 2738.76 1019C2738.36 1019 2738.16 1018.7 2738.16 1018.1C2738.16 1017.5 2738.36 1017.2 2738.76 1017.2C2742.86 1017.2 2745.81 1016.85 2747.61 1016.15C2749.41 1015.35 2750.31 1014.05 2750.31 1012.25C2750.31 1010.85 2749.76 1008.9 2748.66 1006.4L2730.81 968.15H2702.16L2688.66 1000.55C2687.26 1003.95 2686.56 1006.75 2686.56 1008.95C2686.56 1011.85 2687.76 1013.95 2690.16 1015.25C2692.56 1016.55 2696.31 1017.2 2701.41 1017.2C2701.91 1017.2 2702.16 1017.5 2702.16 1018.1C2702.16 1018.7 2701.91 1019 2701.41 1019C2699.61 1019 2697.01 1018.9 2693.61 1018.7C2689.81 1018.5 2686.51 1018.4 2683.71 1018.4C2681.21 1018.4 2678.26 1018.5 2674.86 1018.7C2671.86 1018.9 2669.41 1019 2667.51 1019C2667.01 1019 2666.76 1018.7 2666.76 1018.1C2666.76 1017.5 2667.01 1017.2 2667.51 1017.2C2670.31 1017.2 2672.66 1016.7 2674.56 1015.7C2676.56 1014.7 2678.41 1012.9 2680.11 1010.3C2681.91 1007.7 2683.81 1004 2685.81 999.2L2717.16 923.75C2717.36 923.45 2717.66 923.3 2718.06 923.3C2718.56 923.3 2718.86 923.45 2718.96 923.75L2753.76 998.45C2756.06 1003.55 2758.11 1007.45 2759.91 1010.15C2761.71 1012.75 2763.46 1014.6 2765.16 1015.7C2766.96 1016.7 2769.01 1017.2 2771.31 1017.2ZM2703.36 965.3H2729.61L2715.66 935.6L2703.36 965.3ZM2946.55 925.25C2946.85 925.25 2947 925.55 2947 926.15C2947 926.75 2946.85 927.05 2946.55 927.05C2942.25 927.05 2939.2 928.1 2937.4 930.2C2935.7 932.3 2934.85 935.9 2934.85 941V1020.65C2934.85 1020.85 2934.6 1021 2934.1 1021.1C2933.6 1021.2 2933.25 1021.15 2933.05 1020.95L2865.25 937.55L2862.7 934.7V1003.4C2862.7 1008.5 2863.55 1012.1 2865.25 1014.2C2866.95 1016.2 2869.9 1017.2 2874.1 1017.2C2874.4 1017.2 2874.55 1017.5 2874.55 1018.1C2874.55 1018.7 2874.4 1019 2874.1 1019C2871.7 1019 2869.85 1018.95 2868.55 1018.85L2861.35 1018.7L2854 1018.85C2852.7 1018.95 2850.75 1019 2848.15 1019C2847.95 1019 2847.85 1018.7 2847.85 1018.1C2847.85 1017.5 2847.95 1017.2 2848.15 1017.2C2852.45 1017.2 2855.4 1016.2 2857 1014.2C2858.6 1012.2 2859.4 1008.6 2859.4 1003.4V931.55C2855.9 928.55 2852.3 927.05 2848.6 927.05C2848.3 927.05 2848.15 926.75 2848.15 926.15C2848.15 925.55 2848.3 925.25 2848.6 925.25L2854 925.4C2855.1 925.5 2856.65 925.55 2858.65 925.55C2860.35 925.55 2861.75 925.5 2862.85 925.4C2863.95 925.3 2864.8 925.25 2865.4 925.25C2866.1 925.25 2866.65 925.45 2867.05 925.85C2867.55 926.15 2868.1 926.85 2868.7 927.95C2869.8 929.75 2871 931.45 2872.3 933.05L2931.55 1006.7V941C2931.55 935.9 2930.75 932.3 2929.15 930.2C2927.55 928.1 2924.65 927.05 2920.45 927.05C2920.25 927.05 2920.15 926.75 2920.15 926.15C2920.15 925.55 2920.25 925.25 2920.45 925.25L2926.15 925.4C2929.15 925.6 2931.55 925.7 2933.35 925.7C2935.05 925.7 2937.5 925.6 2940.7 925.4L2946.55 925.25ZM3064.69 1019.6C3061.79 1019.6 3058.54 1019.45 3054.94 1019.15C3053.54 1019.05 3051.79 1018.95 3049.69 1018.85C3047.69 1018.75 3045.44 1018.7 3042.94 1018.7L3033.04 1018.85C3031.24 1018.95 3028.74 1019 3025.54 1019C3025.34 1019 3025.24 1018.7 3025.24 1018.1C3025.24 1017.5 3025.34 1017.2 3025.54 1017.2C3029.44 1017.2 3032.29 1016.95 3034.09 1016.45C3035.99 1015.95 3037.29 1015 3037.99 1013.6C3038.69 1012.1 3039.04 1009.85 3039.04 1006.85V937.4C3039.04 934.4 3038.69 932.2 3037.99 930.8C3037.39 929.4 3036.14 928.45 3034.24 927.95C3032.44 927.35 3029.59 927.05 3025.69 927.05C3025.49 927.05 3025.39 926.75 3025.39 926.15C3025.39 925.55 3025.49 925.25 3025.69 925.25L3033.04 925.4C3037.24 925.6 3040.54 925.7 3042.94 925.7C3046.44 925.7 3049.99 925.55 3053.59 925.25C3057.99 925.05 3060.99 924.95 3062.59 924.95C3073.09 924.95 3082.39 926.95 3090.49 930.95C3098.59 934.95 3104.84 940.4 3109.24 947.3C3113.74 954.2 3115.99 961.95 3115.99 970.55C3115.99 980.25 3113.64 988.85 3108.94 996.35C3104.34 1003.75 3098.14 1009.5 3090.34 1013.6C3082.54 1017.6 3073.99 1019.6 3064.69 1019.6ZM3063.19 1017.65C3071.59 1017.65 3079.04 1015.95 3085.54 1012.55C3092.04 1009.15 3097.09 1004.15 3100.69 997.55C3104.39 990.95 3106.24 983.05 3106.24 973.85C3106.24 965.05 3104.49 957.1 3100.99 950C3097.59 942.9 3092.64 937.3 3086.14 933.2C3079.74 929 3072.34 926.9 3063.94 926.9C3059.54 926.9 3056.14 927.15 3053.74 927.65C3051.44 928.15 3049.74 929.2 3048.64 930.8C3047.54 932.3 3046.99 934.6 3046.99 937.7V1005.2C3046.99 1008.2 3047.44 1010.6 3048.34 1012.4C3049.24 1014.2 3050.84 1015.55 3053.14 1016.45C3055.44 1017.25 3058.79 1017.65 3063.19 1017.65Z" fill="#FF4242"/>
<path d="M1446.49 971.165L1541 959V985H427C825.136 985 1048.35 971.165 1446.49 971.165Z" fill="#D9D9D9"/>
<path d="M3350.21 971.165L3254 959V985H4388C3982.72 985 3755.49 971.165 3350.21 971.165Z" fill="#D9D9D9"/>
<g filter="url(#filter1_d_15_134)">
<path d="M1327.01 164H1449.56C1479.33 164 1505.93 167.483 1529.36 174.45C1553.43 181.417 1573.69 191.55 1590.16 204.85C1607.26 218.15 1620.24 234.3 1629.11 253.3C1637.98 272.3 1642.41 293.833 1642.41 317.9C1642.41 344.5 1636.08 369.2 1623.41 392C1610.74 414.8 1593.01 433.483 1570.21 448.05C1548.04 462.617 1522.71 471.483 1494.21 474.65C1504.98 479.083 1517.33 488.9 1531.26 504.1C1545.83 519.3 1558.18 534.183 1568.31 548.75C1568.31 548.75 1572.43 554.45 1580.66 565.85C1588.89 576.617 1599.34 590.233 1612.01 606.7C1625.31 622.533 1638.29 637.733 1650.96 652.3C1664.26 666.867 1676.29 679.533 1687.06 690.3C1698.46 701.067 1710.49 709.617 1723.16 715.95C1736.46 721.65 1751.66 724.5 1768.76 724.5V734H1739.31C1704.48 734 1675.66 729.567 1652.86 720.7C1630.69 711.833 1612.64 701.067 1598.71 688.4C1584.78 675.1 1572.74 662.433 1562.61 650.4C1560.08 647.233 1554.06 639.317 1544.56 626.65C1535.69 613.35 1525.88 599.1 1515.11 583.9C1504.34 568.7 1494.53 555.083 1485.66 543.05C1476.79 530.383 1471.41 522.783 1469.51 520.25C1456.84 503.783 1442.28 489.217 1425.81 476.55C1409.34 463.25 1391.93 456.6 1373.56 456.6V447.1C1373.56 447.1 1378.63 447.417 1388.76 448.05C1398.89 448.05 1411.88 447.733 1427.71 447.1C1445.44 446.467 1463.18 445.2 1480.91 443.3C1498.64 440.767 1515.11 433.8 1530.31 422.4C1546.14 411 1558.49 392 1567.36 365.4C1569.89 358.433 1571.79 350.2 1573.06 340.7C1574.33 331.2 1574.64 321.383 1574.01 311.25C1573.38 293.517 1569.89 277.683 1563.56 263.75C1557.86 249.817 1549.31 237.783 1537.91 227.65C1527.14 217.517 1514.16 209.6 1498.96 203.9C1483.76 198.2 1466.66 195.033 1447.66 194.4C1417.89 193.133 1391.93 192.817 1369.76 193.45C1347.59 194.083 1336.51 194.083 1336.51 193.45C1336.51 192.817 1335.56 190.283 1333.66 185.85C1332.39 180.783 1330.81 176.033 1328.91 171.6C1327.64 166.533 1327.01 164 1327.01 164ZM1338.41 164V734H1277.61V164H1338.41ZM1280.46 673.2L1291.86 734H1211.11V724.5C1211.11 724.5 1213.33 724.5 1217.76 724.5C1222.19 724.5 1224.41 724.5 1224.41 724.5C1239.61 724.5 1252.28 719.433 1262.41 709.3C1272.54 699.167 1277.93 687.133 1278.56 673.2H1280.46ZM1280.46 223.85H1278.56C1277.93 209.283 1272.54 197.25 1262.41 187.75C1252.28 178.25 1239.61 173.5 1224.41 173.5C1224.41 173.5 1222.19 173.5 1217.76 173.5C1213.33 173.5 1211.11 173.5 1211.11 173.5V164H1291.86L1280.46 223.85ZM1335.56 673.2H1338.41C1339.04 687.133 1344.43 699.167 1354.56 709.3C1364.69 719.433 1377.36 724.5 1392.56 724.5C1392.56 724.5 1394.46 724.5 1398.26 724.5C1402.69 724.5 1404.91 724.5 1404.91 724.5L1405.86 734H1324.16L1335.56 673.2ZM1876.06 164H1981.51C2025.85 164 2064.16 170.65 2096.46 183.95C2128.76 196.617 2153.78 215.3 2171.51 240C2189.25 264.067 2198.11 292.883 2198.11 326.45C2198.11 362.55 2189.88 393.583 2173.41 419.55C2157.58 444.883 2136.36 464.517 2109.76 478.45C2083.16 491.75 2053.71 498.4 2021.41 498.4C1989.11 497.767 1956.81 489.533 1924.51 473.7V464.2C1924.51 464.2 1929.58 465.15 1939.71 467.05C1950.48 468.95 1964.1 469.9 1980.56 469.9C1997.03 469.267 2014.45 466.417 2032.81 461.35C2051.18 455.65 2068.28 445.517 2084.11 430.95C2100.58 416.383 2113.56 395.483 2123.06 368.25C2125.6 361.283 2127.18 353.05 2127.81 343.55C2129.08 334.05 2129.71 325.183 2129.71 316.95C2129.71 278.317 2116.41 247.917 2089.81 225.75C2063.21 203.583 2026.48 192.5 1979.61 192.5H1886.51C1886.51 192.5 1885.56 190.283 1883.66 185.85C1882.4 180.783 1880.81 176.033 1878.91 171.6C1877.01 166.533 1876.06 164 1876.06 164ZM1888.41 164V734H1827.61V164H1888.41ZM1829.51 673.2L1841.86 734H1759.21V724.5C1759.21 724.5 1761.43 724.5 1765.86 724.5C1770.3 724.5 1772.51 724.5 1772.51 724.5C1787.71 724.5 1800.38 719.433 1810.51 709.3C1821.28 699.167 1826.98 687.133 1827.61 673.2H1829.51ZM1829.51 223.85H1827.61C1826.98 209.283 1821.28 197.25 1810.51 187.75C1800.38 178.25 1787.71 173.5 1772.51 173.5C1772.51 173.5 1770.3 173.5 1765.86 173.5C1761.43 173.5 1759.21 173.5 1759.21 173.5V164H1841.86L1829.51 223.85ZM1885.56 673.2H1887.46C1888.1 687.133 1893.48 699.167 1903.61 709.3C1914.38 719.433 1927.36 724.5 1942.56 724.5C1943.2 724.5 1945.41 724.5 1949.21 724.5C1953.65 724.5 1955.86 724.5 1955.86 724.5V734H1873.21L1885.56 673.2ZM2775.46 164V734H2714.66V164H2775.46ZM2364.11 164V734H2303.31V164H2364.11ZM2724.16 438.55V467.05H2353.66V438.55H2724.16ZM2306.16 673.2V734H2236.81V724.5C2236.81 724.5 2238.71 724.5 2242.51 724.5C2246.31 724.5 2248.21 724.5 2248.21 724.5C2263.41 724.5 2276.08 719.433 2286.21 709.3C2296.98 699.167 2302.68 687.133 2303.31 673.2H2306.16ZM2361.26 673.2H2364.11C2364.11 687.133 2369.5 699.167 2380.26 709.3C2391.03 719.433 2404.01 724.5 2419.21 724.5C2419.21 724.5 2421.11 724.5 2424.91 724.5C2428.71 724.5 2430.61 724.5 2430.61 724.5V734H2361.26V673.2ZM2361.26 224.8V164H2430.61V173.5C2430.61 173.5 2428.71 173.5 2424.91 173.5C2421.11 173.5 2419.21 173.5 2419.21 173.5C2404.01 173.5 2391.03 178.567 2380.26 188.7C2369.5 198.2 2364.11 210.233 2364.11 224.8H2361.26ZM2306.16 224.8H2303.31C2302.68 210.233 2296.98 198.2 2286.21 188.7C2276.08 178.567 2263.41 173.5 2248.21 173.5C2248.21 173.5 2246.31 173.5 2242.51 173.5C2238.71 173.5 2236.81 173.5 2236.81 173.5V164H2306.16V224.8ZM2717.51 673.2V734H2648.16V724.5C2648.16 724.5 2650.06 724.5 2653.86 724.5C2657.66 724.5 2659.56 724.5 2659.56 724.5C2674.76 724.5 2687.43 719.433 2697.56 709.3C2708.33 699.167 2714.03 687.133 2714.66 673.2H2717.51ZM2772.61 673.2H2775.46C2776.1 687.133 2781.48 699.167 2791.61 709.3C2802.38 719.433 2815.36 724.5 2830.56 724.5C2830.56 724.5 2832.46 724.5 2836.26 724.5C2840.06 724.5 2841.96 724.5 2841.96 724.5V734H2772.61V673.2ZM2772.61 224.8V164H2841.96V173.5C2841.96 173.5 2840.06 173.5 2836.26 173.5C2832.46 173.5 2830.56 173.5 2830.56 173.5C2815.36 173.5 2802.38 178.567 2791.61 188.7C2781.48 198.2 2776.1 210.233 2775.46 224.8H2772.61ZM2717.51 224.8H2714.66C2714.03 210.233 2708.33 198.2 2697.56 188.7C2687.43 178.567 2674.76 173.5 2659.56 173.5C2659.56 173.5 2657.66 173.5 2653.86 173.5C2650.06 173.5 2648.16 173.5 2648.16 173.5V164H2717.51V224.8ZM3027.3 164V734H2966.5V164H3027.3ZM3282.85 704.55L3280.95 734H3025.4V704.55H3282.85ZM3238.2 434.75V463.25H3025.4V434.75H3238.2ZM3281.9 164V193.45H3025.4V164H3281.9ZM3336.05 598.15L3283.8 734H3139.4L3171.7 704.55C3203.37 704.55 3228.7 700.117 3247.7 691.25C3267.33 681.75 3283.17 669.083 3295.2 653.25C3307.23 636.783 3317.68 618.417 3326.55 598.15H3336.05ZM3238.2 461.35V515.5H3227.75V503.15C3227.75 492.383 3224.58 483.2 3218.25 475.6C3211.92 467.367 3202.1 463.25 3188.8 463.25V461.35H3238.2ZM3238.2 382.5V436.65H3188.8V434.75C3202.1 434.75 3211.92 430.95 3218.25 423.35C3224.58 415.117 3227.75 405.617 3227.75 394.85V382.5H3238.2ZM3281.9 190.6V256.15H3271.45V241.9C3271.45 228.6 3267.02 217.2 3258.15 207.7C3249.92 198.2 3238.52 193.45 3223.95 193.45V190.6H3281.9ZM3281.9 148.8V173.5L3173.6 164C3193.23 164 3214.13 162.417 3236.3 159.25C3258.47 155.45 3273.67 151.967 3281.9 148.8ZM2968.4 673.2L2980.75 734H2898.1V724.5C2898.1 724.5 2900.32 724.5 2904.75 724.5C2909.18 724.5 2911.4 724.5 2911.4 724.5C2927.23 724.5 2940.22 719.433 2950.35 709.3C2960.48 699.167 2965.87 687.133 2966.5 673.2H2968.4ZM2968.4 223.85H2966.5C2965.87 209.283 2960.48 197.25 2950.35 187.75C2940.22 178.25 2927.23 173.5 2911.4 173.5C2911.4 173.5 2909.18 173.5 2904.75 173.5C2900.32 173.5 2898.1 173.5 2898.1 173.5V164H2980.75L2968.4 223.85ZM3475.61 164V523.1C3475.61 584.533 3491.12 632.983 3522.16 668.45C3553.82 703.917 3596.89 721.65 3651.36 721.65C3711.52 721.65 3758.71 704.867 3792.91 671.3C3827.74 637.733 3845.16 591.817 3845.16 533.55V164H3888.86V533.55C3888.86 599.417 3867.64 651.667 3825.21 690.3C3783.41 728.3 3725.77 747.3 3652.31 747.3C3579.47 747.3 3521.52 728.3 3478.46 690.3C3436.02 652.3 3414.81 600.367 3414.81 534.5V164H3475.61ZM3416.71 164V214.35H3414.81C3414.17 202.95 3409.42 193.45 3400.56 185.85C3392.32 177.617 3381.87 173.5 3369.21 173.5C3369.21 173.5 3366.67 173.5 3361.61 173.5C3357.17 173.5 3354.96 173.5 3354.96 173.5V164H3416.71ZM3535.46 164V173.5C3535.46 173.5 3532.92 173.5 3527.86 173.5C3523.42 173.5 3521.21 173.5 3521.21 173.5C3509.17 173.5 3498.41 177.617 3488.91 185.85C3480.04 193.45 3475.61 202.95 3475.61 214.35H3473.71V164H3535.46ZM3847.06 164V214.35H3845.16C3845.16 202.95 3840.72 193.45 3831.86 185.85C3822.99 177.617 3812.22 173.5 3799.56 173.5C3799.56 173.5 3797.02 173.5 3791.96 173.5C3787.52 173.5 3785.31 173.5 3785.31 173.5V164H3847.06ZM3948.71 164V173.5C3948.71 173.5 3946.17 173.5 3941.11 173.5C3936.67 173.5 3934.46 173.5 3934.46 173.5C3922.42 173.5 3911.97 177.617 3903.11 185.85C3894.24 193.45 3889.49 202.95 3888.86 214.35H3886.96V164H3948.71Z" fill="white"/>
</g>
<defs>
<filter id="filter0_d_15_134" x="373.561" y="0.29995" width="4076.94" height="908.4" filterUnits="userSpaceOnUse" color-interpolation-filters="sRGB">
<feFlood flood-opacity="0" result="BackgroundImageFix"/>
<feColorMatrix in="SourceAlpha" type="matrix" values="0 0 0 0 0 0 0 0 0 0 0 0 0 0 0 0 0 0 127 0" result="hardAlpha"/>
<feOffset dx="24" dy="6"/>
<feGaussianBlur stdDeviation="36"/>
<feComposite in2="hardAlpha" operator="out"/>
<feColorMatrix type="matrix" values="0 0 0 0 0 0 0 0 0 0 0 0 0 0 0 0 0 0 0.25 0"/>
<feBlend mode="normal" in2="BackgroundImageFix" result="effect1_dropShadow_15_134"/>
<feBlend mode="normal" in="SourceGraphic" in2="effect1_dropShadow_15_134" result="shape"/>
</filter>
<filter id="filter1_d_15_134" x="1163.11" y="82.7999" width="2881.6" height="742.5" filterUnits="userSpaceOnUse" color-interpolation-filters="sRGB">
<feFlood flood-opacity="0" result="BackgroundImageFix"/>
<feColorMatrix in="SourceAlpha" type="matrix" values="0 0 0 0 0 0 0 0 0 0 0 0 0 0 0 0 0 0 127 0" result="hardAlpha"/>
<feOffset dx="24" dy="6"/>
<feGaussianBlur stdDeviation="36"/>
<feComposite in2="hardAlpha" operator="out"/>
<feColorMatrix type="matrix" values="0 0 0 0 0 0 0 0 0 0 0 0 0 0 0 0 0 0 0.25 0"/>
<feBlend mode="normal" in2="BackgroundImageFix" result="effect1_dropShadow_15_134"/>
<feBlend mode="normal" in="SourceGraphic" in2="effect1_dropShadow_15_134" result="shape"/>
</filter>
</defs>
</svg>
