<?xml version="1.0" standalone="no"?>
<!DOCTYPE svg PUBLIC "-//W3C//DTD SVG 20010904//EN"
 "https://www.w3.org/TR/2001/REC-SVG-20010904/DTD/svg10.dtd">
<svg version="1.0" xmlns="http://www.w3.org/2000/svg"
 width="700.000000pt" height="700.000000pt" viewBox="0 0 700.000000 700.000000"
 preserveAspectRatio="xMidYMid meet">
<metadata>
Created by potrace 1.14, written by Peter Selinger 2001-2017
</metadata>
<g transform="translate(0.000000,700.000000) scale(0.100000,-0.100000)"
fill="#000000" stroke="none">
<path d="M2790 6222 c-185 -318 -269 -461 -289 -492 -8 -14 -16 -27 -16 -30 0
-3 -39 -70 -86 -150 -78 -131 -166 -282 -215 -367 -11 -18 -56 -95 -101 -172
-46 -78 -83 -143 -83 -146 0 -3 -5 -11 -11 -18 -10 -12 -303 -510 -316 -537
-3 -8 -16 -31 -28 -50 -12 -19 -56 -93 -97 -165 -61 -107 -403 -692 -482 -826
-11 -20 -49 -85 -84 -145 -35 -60 -67 -116 -72 -124 -25 -40 -150 -253 -150
-255 0 -1 -43 -76 -96 -166 -53 -90 -106 -180 -117 -199 -11 -19 -58 -100
-105 -180 -46 -80 -96 -165 -110 -190 -13 -25 -28 -49 -32 -55 -4 -5 -21 -36
-39 -67 l-32 -58 635 0 635 0 14 27 c8 16 111 194 231 397 119 203 216 373
216 377 0 5 5 9 10 9 6 0 10 5 10 10 0 6 35 70 79 143 43 72 110 186 148 252
38 66 179 307 313 535 133 228 254 435 268 460 14 25 57 99 97 165 39 66 74
127 78 135 4 8 139 240 301 515 l294 500 -33 60 c-35 66 -67 123 -128 230 -22
39 -51 90 -65 115 -13 25 -42 74 -62 110 -21 36 -50 86 -64 113 -70 127 -121
217 -157 279 -16 27 -29 50 -29 52 0 1 -19 37 -43 78 l-43 76 -144 -246z"/>
<path d="M2758 3469 c-5 -3 64 -119 154 -258 90 -139 170 -264 179 -279 13
-21 339 -527 554 -857 17 -27 123 -192 235 -365 112 -173 240 -371 284 -440
169 -259 331 -511 341 -527 24 -41 236 -368 260 -402 l17 -23 22 36 c21 36 55
88 297 461 71 110 153 236 181 280 29 44 97 150 153 235 55 85 118 182 138
215 21 33 118 184 217 335 171 263 251 386 350 540 25 39 173 268 330 510 157
242 300 462 317 490 l33 50 -385 1 c-212 0 -441 0 -510 0 -69 0 -183 0 -254 0
l-129 -1 -41 -67 c-23 -38 -80 -126 -126 -198 -46 -71 -107 -166 -135 -210
-159 -249 -305 -476 -378 -589 l-83 -128 -175 274 c-97 150 -193 300 -215 333
-21 33 -115 179 -208 324 l-170 264 -621 1 c-342 1 -626 -2 -632 -5z"/>
</g>
</svg>
